# xmcd
#
# Track frame offsets:
#	150
#	13419
#	28934
#
# Disc length: 585 seconds
#
# Revision: 0
# Processed by: cddbd v1.4PL0 Copyright (c) Steve Scherf et al.
# Submitted via: dBpowerAMP V4.0
#
DISCID=22024703
DTITLE=Killin' Time - Feel The Rush
DYEAR=1900
DGENRE=
TTITLE0=Oh My God
TTITLE1=Feel The Rush
TTITLE2=God's Gift
EXTD=
EXTT0=
EXTT1=
EXTT2=
PLAYORDER=
